<svg xmlns="http://www.w3.org/2000/svg" viewBox="0 0 720 462" width="720" height="462" role="img" aria-labelledby="t d" font-family="'Inter', system-ui, -apple-system, 'Segoe UI', sans-serif" font-size="12">
<title id="t">Recalls by month of the year</title><desc id="d">102,717 recalls, 2012 to 2025</desc>
<rect width="720" height="462" fill="#0b1117"/>
<text x="20" y="26" font-size="15" font-weight="600" fill="#e8f3f2">Recalls by month of the year</text>
<text x="20" y="44" font-size="12" fill="#9eb3ba">102,717 recalls, 2012 to 2025</text>
<line x1="92" y1="56" x2="92" y2="422" stroke="#1c2b36" stroke-width="1"/>
<g><title>Jan: 6,300</title><rect x="0" y="62" width="720" height="30" fill="transparent"/><path d="M92 68.0 h311.8 a4 4 0 0 1 4 4 v10 a4 4 0 0 1 -4 4 h-311.8 z" fill="#14b8a6"/><text x="82" y="81.0" text-anchor="end" fill="#e8f3f2">Jan</text><text x="415.8" y="81.0" fill="#9eb3ba" font-family="ui-monospace, SFMono-Regular, Menlo, Consolas, monospace" font-size="11">6,300</text></g>
<g><title>Feb: 7,292</title><rect x="0" y="92" width="720" height="30" fill="transparent"/><path d="M92 98.0 h361.5 a4 4 0 0 1 4 4 v10 a4 4 0 0 1 -4 4 h-361.5 z" fill="#14b8a6"/><text x="82" y="111.0" text-anchor="end" fill="#e8f3f2">Feb</text><text x="465.5" y="111.0" fill="#9eb3ba" font-family="ui-monospace, SFMono-Regular, Menlo, Consolas, monospace" font-size="11">7,292</text></g>
<g><title>Mar: 8,992</title><rect x="0" y="122" width="720" height="30" fill="transparent"/><path d="M92 128.0 h446.8 a4 4 0 0 1 4 4 v10 a4 4 0 0 1 -4 4 h-446.8 z" fill="#14b8a6"/><text x="82" y="141.0" text-anchor="end" fill="#e8f3f2">Mar</text><text x="550.8" y="141.0" fill="#9eb3ba" font-family="ui-monospace, SFMono-Regular, Menlo, Consolas, monospace" font-size="11">8,992</text></g>
<g><title>Apr: 8,881</title><rect x="0" y="152" width="720" height="30" fill="transparent"/><path d="M92 158.0 h441.2 a4 4 0 0 1 4 4 v10 a4 4 0 0 1 -4 4 h-441.2 z" fill="#14b8a6"/><text x="82" y="171.0" text-anchor="end" fill="#e8f3f2">Apr</text><text x="545.2" y="171.0" fill="#9eb3ba" font-family="ui-monospace, SFMono-Regular, Menlo, Consolas, monospace" font-size="11">8,881</text></g>
<g><title>May: 10,533</title><rect x="0" y="182" width="720" height="30" fill="transparent"/><path d="M92 188.0 h524.0 a4 4 0 0 1 4 4 v10 a4 4 0 0 1 -4 4 h-524.0 z" fill="#14b8a6"/><text x="82" y="201.0" text-anchor="end" fill="#e8f3f2">May</text><text x="628.0" y="201.0" fill="#9eb3ba" font-family="ui-monospace, SFMono-Regular, Menlo, Consolas, monospace" font-size="11">10,533</text></g>
<g><title>Jun: 9,134</title><rect x="0" y="212" width="720" height="30" fill="transparent"/><path d="M92 218.0 h453.9 a4 4 0 0 1 4 4 v10 a4 4 0 0 1 -4 4 h-453.9 z" fill="#14b8a6"/><text x="82" y="231.0" text-anchor="end" fill="#e8f3f2">Jun</text><text x="557.9" y="231.0" fill="#9eb3ba" font-family="ui-monospace, SFMono-Regular, Menlo, Consolas, monospace" font-size="11">9,134</text></g>
<g><title>Jul: 10,003</title><rect x="0" y="242" width="720" height="30" fill="transparent"/><path d="M92 248.0 h497.4 a4 4 0 0 1 4 4 v10 a4 4 0 0 1 -4 4 h-497.4 z" fill="#14b8a6"/><text x="82" y="261.0" text-anchor="end" fill="#e8f3f2">Jul</text><text x="601.4" y="261.0" fill="#9eb3ba" font-family="ui-monospace, SFMono-Regular, Menlo, Consolas, monospace" font-size="11">10,003</text></g>
<g><title>Aug: 7,574</title><rect x="0" y="272" width="720" height="30" fill="transparent"/><path d="M92 278.0 h375.7 a4 4 0 0 1 4 4 v10 a4 4 0 0 1 -4 4 h-375.7 z" fill="#14b8a6"/><text x="82" y="291.0" text-anchor="end" fill="#e8f3f2">Aug</text><text x="479.7" y="291.0" fill="#9eb3ba" font-family="ui-monospace, SFMono-Regular, Menlo, Consolas, monospace" font-size="11">7,574</text></g>
<g><title>Sep: 8,020</title><rect x="0" y="302" width="720" height="30" fill="transparent"/><path d="M92 308.0 h398.0 a4 4 0 0 1 4 4 v10 a4 4 0 0 1 -4 4 h-398.0 z" fill="#14b8a6"/><text x="82" y="321.0" text-anchor="end" fill="#e8f3f2">Sep</text><text x="502.0" y="321.0" fill="#9eb3ba" font-family="ui-monospace, SFMono-Regular, Menlo, Consolas, monospace" font-size="11">8,020</text></g>
<g><title>Oct: 9,168</title><rect x="0" y="332" width="720" height="30" fill="transparent"/><path d="M92 338.0 h455.6 a4 4 0 0 1 4 4 v10 a4 4 0 0 1 -4 4 h-455.6 z" fill="#14b8a6"/><text x="82" y="351.0" text-anchor="end" fill="#e8f3f2">Oct</text><text x="559.6" y="351.0" fill="#9eb3ba" font-family="ui-monospace, SFMono-Regular, Menlo, Consolas, monospace" font-size="11">9,168</text></g>
<g><title>Nov: 8,777</title><rect x="0" y="362" width="720" height="30" fill="transparent"/><path d="M92 368.0 h436.0 a4 4 0 0 1 4 4 v10 a4 4 0 0 1 -4 4 h-436.0 z" fill="#14b8a6"/><text x="82" y="381.0" text-anchor="end" fill="#e8f3f2">Nov</text><text x="540.0" y="381.0" fill="#9eb3ba" font-family="ui-monospace, SFMono-Regular, Menlo, Consolas, monospace" font-size="11">8,777</text></g>
<g><title>Dec: 8,043</title><rect x="0" y="392" width="720" height="30" fill="transparent"/><path d="M92 398.0 h399.2 a4 4 0 0 1 4 4 v10 a4 4 0 0 1 -4 4 h-399.2 z" fill="#14b8a6"/><text x="82" y="411.0" text-anchor="end" fill="#e8f3f2">Dec</text><text x="503.2" y="411.0" fill="#9eb3ba" font-family="ui-monospace, SFMono-Regular, Menlo, Consolas, monospace" font-size="11">8,043</text></g>
<text x="20" y="450" font-size="11" fill="#9eb3ba">Source: RecallDB, recalldb.dataengineered.io/stats · snapshot 2026-07-13 · CC BY 4.0</text>
</svg>
