<svg xmlns="http://www.w3.org/2000/svg" viewBox="0 0 720 402" width="720" height="402" role="img" aria-labelledby="t d" font-family="'Inter', system-ui, -apple-system, 'Segoe UI', sans-serif" font-size="12">
<title id="t">The largest recalls by units affected</title><desc id="d">Units reported by the issuing agency, top 10 on record</desc>
<rect width="720" height="402" fill="#0b1117"/>
<text x="20" y="26" font-size="15" font-weight="600" fill="#e8f3f2">The largest recalls by units affected</text>
<text x="20" y="44" font-size="12" fill="#9eb3ba">Units reported by the issuing agency, top 10 on record</text>
<line x1="122" y1="56" x2="122" y2="362" stroke="#1c2b36" stroke-width="1"/>
<g><title>CPSC · 2016: 118,000,000</title><rect x="0" y="62" width="720" height="30" fill="transparent"/><path d="M122 68.0 h494.0 a4 4 0 0 1 4 4 v10 a4 4 0 0 1 -4 4 h-494.0 z" fill="#14b8a6"/><text x="112" y="81.0" text-anchor="end" fill="#e8f3f2">CPSC · 2016</text><text x="628.0" y="81.0" fill="#9eb3ba" font-family="ui-monospace, SFMono-Regular, Menlo, Consolas, monospace" font-size="11">118,000,000</text></g>
<g><title>NHTSA · 1999: 32,000,000</title><rect x="0" y="92" width="720" height="30" fill="transparent"/><path d="M122 98.0 h131.1 a4 4 0 0 1 4 4 v10 a4 4 0 0 1 -4 4 h-131.1 z" fill="#14b8a6"/><text x="112" y="111.0" text-anchor="end" fill="#e8f3f2">NHTSA · 1999</text><text x="265.1" y="111.0" fill="#9eb3ba" font-family="ui-monospace, SFMono-Regular, Menlo, Consolas, monospace" font-size="11">32,000,000</text></g>
<g><title>CPSC · 2012: 29,026,000</title><rect x="0" y="122" width="720" height="30" fill="transparent"/><path d="M122 128.0 h118.5 a4 4 0 0 1 4 4 v10 a4 4 0 0 1 -4 4 h-118.5 z" fill="#14b8a6"/><text x="112" y="141.0" text-anchor="end" fill="#e8f3f2">CPSC · 2012</text><text x="252.5" y="141.0" fill="#9eb3ba" font-family="ui-monospace, SFMono-Regular, Menlo, Consolas, monospace" font-size="11">29,026,000</text></g>
<g><title>NHTSA · 1981: 21,000,000</title><rect x="0" y="152" width="720" height="30" fill="transparent"/><path d="M122 158.0 h84.6 a4 4 0 0 1 4 4 v10 a4 4 0 0 1 -4 4 h-84.6 z" fill="#14b8a6"/><text x="112" y="171.0" text-anchor="end" fill="#e8f3f2">NHTSA · 1981</text><text x="218.6" y="171.0" fill="#9eb3ba" font-family="ui-monospace, SFMono-Regular, Menlo, Consolas, monospace" font-size="11">21,000,000</text></g>
<g><title>NHTSA · 2015: 17,600,000</title><rect x="0" y="182" width="720" height="30" fill="transparent"/><path d="M122 188.0 h70.3 a4 4 0 0 1 4 4 v10 a4 4 0 0 1 -4 4 h-70.3 z" fill="#14b8a6"/><text x="112" y="201.0" text-anchor="end" fill="#e8f3f2">NHTSA · 2015</text><text x="204.3" y="201.0" fill="#9eb3ba" font-family="ui-monospace, SFMono-Regular, Menlo, Consolas, monospace" font-size="11">17,600,000</text></g>
<g><title>NHTSA · 1978: 14,500,000</title><rect x="0" y="212" width="720" height="30" fill="transparent"/><path d="M122 218.0 h57.2 a4 4 0 0 1 4 4 v10 a4 4 0 0 1 -4 4 h-57.2 z" fill="#14b8a6"/><text x="112" y="231.0" text-anchor="end" fill="#e8f3f2">NHTSA · 1978</text><text x="191.2" y="231.0" fill="#9eb3ba" font-family="ui-monospace, SFMono-Regular, Menlo, Consolas, monospace" font-size="11">14,500,000</text></g>
<g><title>NHTSA · 2000: 14,400,000</title><rect x="0" y="242" width="720" height="30" fill="transparent"/><path d="M122 248.0 h56.8 a4 4 0 0 1 4 4 v10 a4 4 0 0 1 -4 4 h-56.8 z" fill="#14b8a6"/><text x="112" y="261.0" text-anchor="end" fill="#e8f3f2">NHTSA · 2000</text><text x="190.8" y="261.0" fill="#9eb3ba" font-family="ui-monospace, SFMono-Regular, Menlo, Consolas, monospace" font-size="11">14,400,000</text></g>
<g><title>NHTSA · 2001: 13,000,000</title><rect x="0" y="272" width="720" height="30" fill="transparent"/><path d="M122 278.0 h50.9 a4 4 0 0 1 4 4 v10 a4 4 0 0 1 -4 4 h-50.9 z" fill="#14b8a6"/><text x="112" y="291.0" text-anchor="end" fill="#e8f3f2">NHTSA · 2001</text><text x="184.9" y="291.0" fill="#9eb3ba" font-family="ui-monospace, SFMono-Regular, Menlo, Consolas, monospace" font-size="11">13,000,000</text></g>
<g><title>NHTSA · 2020: 10,000,000</title><rect x="0" y="302" width="720" height="30" fill="transparent"/><path d="M122 308.0 h38.2 a4 4 0 0 1 4 4 v10 a4 4 0 0 1 -4 4 h-38.2 z" fill="#14b8a6"/><text x="112" y="321.0" text-anchor="end" fill="#e8f3f2">NHTSA · 2020</text><text x="172.2" y="321.0" fill="#9eb3ba" font-family="ui-monospace, SFMono-Regular, Menlo, Consolas, monospace" font-size="11">10,000,000</text></g>
<g><title>NHTSA · 2016: 8,500,000</title><rect x="0" y="332" width="720" height="30" fill="transparent"/><path d="M122 338.0 h31.9 a4 4 0 0 1 4 4 v10 a4 4 0 0 1 -4 4 h-31.9 z" fill="#14b8a6"/><text x="112" y="351.0" text-anchor="end" fill="#e8f3f2">NHTSA · 2016</text><text x="165.9" y="351.0" fill="#9eb3ba" font-family="ui-monospace, SFMono-Regular, Menlo, Consolas, monospace" font-size="11">8,500,000</text></g>
<text x="20" y="390" font-size="11" fill="#9eb3ba">Source: RecallDB, recalldb.dataengineered.io/stats · snapshot 2026-07-13 · CC BY 4.0</text>
</svg>
