<svg xmlns="http://www.w3.org/2000/svg" viewBox="0 0 720 320" width="720" height="320" role="img" aria-labelledby="t d" font-family="'Inter', system-ui, -apple-system, 'Segoe UI', sans-serif" font-size="12">
<title id="t">Vehicle model years with the most recall entries</title><desc id="d">NHTSA recall entries (make, model and model year) per model year</desc>
<rect width="720" height="320" fill="#0b1117"/>
<text x="20" y="26" font-size="15" font-weight="600" fill="#e8f3f2">Vehicle model years with the most recall entries</text>
<text x="20" y="44" font-size="12" fill="#9eb3ba">NHTSA recall entries (make, model and model year) per model year</text>
<line x1="56" y1="274.0" x2="640" y2="274.0" stroke="#1c2b36" stroke-width="1"/>
<text x="48" y="278.0" text-anchor="end" fill="#9eb3ba" font-size="11" font-family="ui-monospace, SFMono-Regular, Menlo, Consolas, monospace">0</text>
<line x1="56" y1="221.0" x2="640" y2="221.0" stroke="#1c2b36" stroke-width="1"/>
<text x="48" y="225.0" text-anchor="end" fill="#9eb3ba" font-size="11" font-family="ui-monospace, SFMono-Regular, Menlo, Consolas, monospace">2,000</text>
<line x1="56" y1="168.0" x2="640" y2="168.0" stroke="#1c2b36" stroke-width="1"/>
<text x="48" y="172.0" text-anchor="end" fill="#9eb3ba" font-size="11" font-family="ui-monospace, SFMono-Regular, Menlo, Consolas, monospace">4,000</text>
<line x1="56" y1="115.0" x2="640" y2="115.0" stroke="#1c2b36" stroke-width="1"/>
<text x="48" y="119.0" text-anchor="end" fill="#9eb3ba" font-size="11" font-family="ui-monospace, SFMono-Regular, Menlo, Consolas, monospace">6,000</text>
<line x1="56" y1="62.0" x2="640" y2="62.0" stroke="#1c2b36" stroke-width="1"/>
<text x="48" y="66.0" text-anchor="end" fill="#9eb3ba" font-size="11" font-family="ui-monospace, SFMono-Regular, Menlo, Consolas, monospace">8,000</text>
<text x="56.0" y="292" text-anchor="middle" fill="#9eb3ba" font-size="11" font-family="ui-monospace, SFMono-Regular, Menlo, Consolas, monospace">2000</text>
<text x="123.4" y="292" text-anchor="middle" fill="#9eb3ba" font-size="11" font-family="ui-monospace, SFMono-Regular, Menlo, Consolas, monospace">2003</text>
<text x="190.8" y="292" text-anchor="middle" fill="#9eb3ba" font-size="11" font-family="ui-monospace, SFMono-Regular, Menlo, Consolas, monospace">2006</text>
<text x="258.2" y="292" text-anchor="middle" fill="#9eb3ba" font-size="11" font-family="ui-monospace, SFMono-Regular, Menlo, Consolas, monospace">2009</text>
<text x="325.5" y="292" text-anchor="middle" fill="#9eb3ba" font-size="11" font-family="ui-monospace, SFMono-Regular, Menlo, Consolas, monospace">2012</text>
<text x="392.9" y="292" text-anchor="middle" fill="#9eb3ba" font-size="11" font-family="ui-monospace, SFMono-Regular, Menlo, Consolas, monospace">2015</text>
<text x="460.3" y="292" text-anchor="middle" fill="#9eb3ba" font-size="11" font-family="ui-monospace, SFMono-Regular, Menlo, Consolas, monospace">2018</text>
<text x="527.7" y="292" text-anchor="middle" fill="#9eb3ba" font-size="11" font-family="ui-monospace, SFMono-Regular, Menlo, Consolas, monospace">2021</text>
<text x="595.1" y="292" text-anchor="middle" fill="#9eb3ba" font-size="11" font-family="ui-monospace, SFMono-Regular, Menlo, Consolas, monospace">2024</text>
<text x="640.0" y="292" text-anchor="middle" fill="#9eb3ba" font-size="11" font-family="ui-monospace, SFMono-Regular, Menlo, Consolas, monospace">2026</text>
<path d="M56.0 165.3 L78.5 165.0 L100.9 169.8 L123.4 154.3 L145.8 151.1 L168.3 147.1 L190.8 123.8 L213.2 119.6 L235.7 116.4 L258.2 123.3 L280.6 125.0 L303.1 122.6 L325.5 132.1 L348.0 124.5 L370.5 120.3 L392.9 119.2 L415.4 120.7 L437.8 123.1 L460.3 113.3 L482.8 102.0 L505.2 102.5 L527.7 98.9 L550.2 124.0 L572.6 153.1 L595.1 175.6 L617.5 199.3 L640.0 237.6 L640.0 274 L56.0 274 Z" fill="#14b8a6" fill-opacity="0.1"/>
<path d="M56.0 165.3 L78.5 165.0 L100.9 169.8 L123.4 154.3 L145.8 151.1 L168.3 147.1 L190.8 123.8 L213.2 119.6 L235.7 116.4 L258.2 123.3 L280.6 125.0 L303.1 122.6 L325.5 132.1 L348.0 124.5 L370.5 120.3 L392.9 119.2 L415.4 120.7 L437.8 123.1 L460.3 113.3 L482.8 102.0 L505.2 102.5 L527.7 98.9 L550.2 124.0 L572.6 153.1 L595.1 175.6 L617.5 199.3 L640.0 237.6" fill="none" stroke="#14b8a6" stroke-width="2" stroke-linejoin="round" stroke-linecap="round"/>
<g><title>2000: 4,101</title><circle cx="56.0" cy="165.3" r="12" fill="transparent"/></g>
<g><title>2001: 4,112</title><circle cx="78.5" cy="165.0" r="12" fill="transparent"/></g>
<g><title>2002: 3,932</title><circle cx="100.9" cy="169.8" r="12" fill="transparent"/></g>
<g><title>2003: 4,516</title><circle cx="123.4" cy="154.3" r="12" fill="transparent"/></g>
<g><title>2004: 4,637</title><circle cx="145.8" cy="151.1" r="12" fill="transparent"/></g>
<g><title>2005: 4,788</title><circle cx="168.3" cy="147.1" r="12" fill="transparent"/></g>
<g><title>2006: 5,667</title><circle cx="190.8" cy="123.8" r="12" fill="transparent"/></g>
<g><title>2007: 5,827</title><circle cx="213.2" cy="119.6" r="12" fill="transparent"/></g>
<g><title>2008: 5,948</title><circle cx="235.7" cy="116.4" r="12" fill="transparent"/></g>
<g><title>2009: 5,687</title><circle cx="258.2" cy="123.3" r="12" fill="transparent"/></g>
<g><title>2010: 5,621</title><circle cx="280.6" cy="125.0" r="12" fill="transparent"/></g>
<g><title>2011: 5,712</title><circle cx="303.1" cy="122.6" r="12" fill="transparent"/></g>
<g><title>2012: 5,353</title><circle cx="325.5" cy="132.1" r="12" fill="transparent"/></g>
<g><title>2013: 5,640</title><circle cx="348.0" cy="124.5" r="12" fill="transparent"/></g>
<g><title>2014: 5,800</title><circle cx="370.5" cy="120.3" r="12" fill="transparent"/></g>
<g><title>2015: 5,841</title><circle cx="392.9" cy="119.2" r="12" fill="transparent"/></g>
<g><title>2016: 5,786</title><circle cx="415.4" cy="120.7" r="12" fill="transparent"/></g>
<g><title>2017: 5,694</title><circle cx="437.8" cy="123.1" r="12" fill="transparent"/></g>
<g><title>2018: 6,066</title><circle cx="460.3" cy="113.3" r="12" fill="transparent"/></g>
<g><title>2019: 6,492</title><circle cx="482.8" cy="102.0" r="12" fill="transparent"/></g>
<g><title>2020: 6,472</title><circle cx="505.2" cy="102.5" r="12" fill="transparent"/></g>
<g><title>2021: 6,608</title><circle cx="527.7" cy="98.9" r="12" fill="transparent"/></g>
<g><title>2022: 5,661</title><circle cx="550.2" cy="124.0" r="12" fill="transparent"/></g>
<g><title>2023: 4,563</title><circle cx="572.6" cy="153.1" r="12" fill="transparent"/></g>
<g><title>2024: 3,713</title><circle cx="595.1" cy="175.6" r="12" fill="transparent"/></g>
<g><title>2025: 2,818</title><circle cx="617.5" cy="199.3" r="12" fill="transparent"/></g>
<g><title>2026: 1,373</title><circle cx="640.0" cy="237.6" r="12" fill="transparent"/></g>
<circle cx="527.7" cy="98.9" r="5" fill="#14b8a6" stroke="#0b1117" stroke-width="2"/>
<text x="527.7" y="86.9" text-anchor="middle" fill="#e8f3f2" font-size="11">6,608 (2021)</text>
<circle cx="640.0" cy="237.6" r="5" fill="#14b8a6" stroke="#0b1117" stroke-width="2"/>
<text x="650.0" y="241.6" fill="#e8f3f2" font-size="11">1,373</text>
<text x="20" y="308" font-size="11" fill="#9eb3ba">Source: RecallDB, recalldb.dataengineered.io/stats · snapshot 2026-07-13 · CC BY 4.0</text>
</svg>
